# xmcd CD database file
#
# Track frame offsets:
#	150
#	15877
#	35287
#	63633
#	92132
#	107839
#	129356
#	139810
#	150039
#	162183
#	177686
#	203647
#	229156
#	254378
#	268833
#
# Disc length: 3818 seconds
#
# Revision: 0
# Processed by: cddbd v1.5.1PL2 Copyright (c) Steve Scherf et al.
# Submitted via: CDex 1.51
#
DISCID=c30ee80f
DTITLE=T.J. Wheeler and "Hatrack" Gallagher - Blues You Can Bank On
DYEAR=2002
DGENRE=Blues
TTITLE0=I'm A Stranger
TTITLE1=Mornin' Blues
TTITLE2=Blues You Can Bank On
TTITLE3=Aberdeen
TTITLE4=Pay Day
TTITLE5=Mighty Long Time
TTITLE6=My Epitaph
TTITLE7=Mosby Street Rag
TTITLE8=Let The Mermaids Flirt With Me
TTITLE9=Hurry Up And Wait
TTITLE10=Casey Jones
TTITLE11=Blues Had A Baby And They Named It Rock And Roll
TTITLE12=Lost John
TTITLE13=Rock Island Line
TTITLE14=Hand Me Down
EXTD=YEAR: 2002
EXTT0=
EXTT1=
EXTT2=
EXTT3=
EXTT4=
EXTT5=
EXTT6=
EXTT7=
EXTT8=
EXTT9=
EXTT10=
EXTT11=
EXTT12=
EXTT13=
EXTT14=
PLAYORDER=
